<svg width="664" height="463" viewBox="0 0 664 463" fill="none" xmlns="http://www.w3.org/2000/svg">
<path d="M542.44 113.99L330.57 62.9599V462.29L542.44 406.83V113.99Z" fill="#E0E0E0"/>
<path opacity="0.1" d="M542.44 113.99L330.57 62.9599V462.29L542.44 406.83V113.99Z" fill="black"/>
<path d="M118.7 113.99L330.57 62.9599V462.29L118.7 407.94V113.99Z" fill="#E0E0E0"/>
<path opacity="0.17" d="M118.7 112.22L330.57 61.1999V462.29L118.7 407.94V112.22Z" fill="black"/>
<path d="M328.969 62.5954L447.935 15.4806L660.768 68.8754L542.001 113.92L328.969 62.5954Z" fill="#E0E0E0"/>
<path d="M5.76448 68.4984L120.67 115.075L330.931 61.3063L216.877 11.7012L5.76448 68.4984Z" fill="#E0E0E0"/>
<path opacity="0.05" d="M3.88131 67.5078L121.557 114.991L331.827 61.2215L214.983 10.705L3.88131 67.5078Z" fill="black"/>
<path d="M118.7 113.99V407.94L330.57 462.29L333.43 170.56L118.7 113.99Z" fill="#E0E0E0"/>
<path d="M542.44 406.83L330.57 462.29V170.56L542.44 113.99V406.83Z" fill="#E0E0E0"/>
<path opacity="0.07" d="M542.44 406.83L330.57 462.29V170.56L542.44 113.99V406.83Z" fill="black"/>
<path opacity="0.07" d="M458.13 309.21V405.72L542.44 382.42V285.92L458.13 309.21Z" fill="black"/>
<path opacity="0.1" d="M115.93 266.51L234.62 296.46L330.02 218.81V171.11L118.15 117.87L115.93 266.51Z" fill="black"/>
<path opacity="0.1" d="M544.1 266.51L425.41 296.46L330.02 218.81V171.11L541.88 117.87L544.1 266.51Z" fill="black"/>
<path d="M118.7 113.99L10 203.84L221.86 257.08L330.57 170.56L118.7 113.99Z" fill="#E0E0E0"/>
<path d="M542.44 113.99L652.25 203.84L441.49 257.08L330.57 170.56L542.44 113.99Z" fill="#E0E0E0"/>
<path opacity="0.07" d="M542.44 113.99L652.25 203.84L441.49 257.08L330.57 170.56L542.44 113.99Z" fill="black"/>
</svg>
