<svg width="643" height="491" viewBox="0 0 643 491" fill="none" xmlns="http://www.w3.org/2000/svg">
<path d="M532.44 141.99L320.57 90.96V490.29L532.44 434.83V141.99Z" fill="#E0E0E0"/>
<path opacity="0.1" d="M532.44 141.99L320.57 90.96V490.29L532.44 434.83V141.99Z" fill="black"/>
<path d="M108.7 141.99L320.57 90.96V490.29L108.7 435.94V141.99Z" fill="#E0E0E0"/>
<path opacity="0.17" d="M108.7 140.22L320.57 89.2V490.29L108.7 435.94V140.22Z" fill="black"/>
<path d="M318.8 92.73L430.39 0L642.25 54.36L530.67 143.75L318.8 92.73Z" fill="#E0E0E0"/>
<path d="M1.75977 57.23L110.47 143.75L322.33 92.73L214.74 1.77002L1.75977 57.23Z" fill="#E0E0E0"/>
<path opacity="0.05" d="M0 55.47L111.35 143.75L323.22 92.73L212.97 0L0 55.47Z" fill="black"/>
<path d="M108.7 141.99V435.94L320.57 490.29L323.43 198.56L108.7 141.99Z" fill="#E0E0E0"/>
<path d="M532.44 434.83L320.57 490.29V198.56L532.44 141.99V434.83Z" fill="#E0E0E0"/>
<path opacity="0.07" d="M532.44 434.83L320.57 490.29V198.56L532.44 141.99V434.83Z" fill="black"/>
<path opacity="0.07" d="M448.13 337.21V433.72L532.44 410.42V313.92L448.13 337.21Z" fill="black"/>
<path opacity="0.1" d="M105.93 294.51L224.62 324.46L320.02 246.81V199.11L108.15 145.87L105.93 294.51Z" fill="black"/>
<path opacity="0.1" d="M534.1 294.51L415.41 324.46L320.02 246.81V199.11L531.88 145.87L534.1 294.51Z" fill="black"/>
<path d="M108.7 141.99L0 231.84L211.86 285.08L320.57 198.56L108.7 141.99Z" fill="#E0E0E0"/>
<path d="M532.44 141.99L642.25 231.84L431.49 285.08L320.57 198.56L532.44 141.99Z" fill="#E0E0E0"/>
<path opacity="0.07" d="M532.44 141.99L642.25 231.84L431.49 285.08L320.57 198.56L532.44 141.99Z" fill="black"/>
</svg>
