<svg width="664" height="548" viewBox="0 0 664 548" fill="none" xmlns="http://www.w3.org/2000/svg">
<path d="M542.013 198.793L330.143 147.763V547.093L542.013 491.633V198.793Z" fill="#E0E0E0"/>
<path opacity="0.1" d="M542.013 198.793L330.143 147.763V547.093L542.013 491.633V198.793Z" fill="black"/>
<path d="M118.272 198.793L330.142 147.763V547.093L118.272 492.743V198.793Z" fill="#E0E0E0"/>
<path opacity="0.17" d="M118.272 197.023L330.142 146.003V547.093L118.272 492.743V197.023Z" fill="black"/>
<path d="M328.541 147.399L447.507 100.284L660.34 153.679L541.574 198.724L328.541 147.399Z" fill="#E0E0E0"/>
<path d="M5.33675 153.301L120.243 199.878L330.503 146.109L216.449 96.5043L5.33675 153.301Z" fill="#E0E0E0"/>
<path opacity="0.05" d="M3.45358 152.311L121.129 199.794L331.4 146.025L214.555 95.5081L3.45358 152.311Z" fill="black"/>
<path d="M350 137L212 162L331 179L453 151L350 137Z" fill="#4E81CF"/>
<path d="M213.519 239.504L212 162L331 178.816V270L213.519 239.504Z" fill="#0B52BF" fill-opacity="0.1"/>
<path d="M213.519 239.504L212 162L331 178.816V270L213.519 239.504Z" fill="#0B52BF"/>
<path d="M331 179.244V270L452.5 231V151.5L331 179.244Z" fill="#0B52BF" fill-opacity="0.5"/>
<path d="M331 179.244V270L452.5 231V151.5L331 179.244Z" fill="#0B52BF" fill-opacity="0.1"/>
<path d="M338.261 124L281 134.373L330.378 141.427L381 129.809L338.261 124Z" fill="#4E81CF"/>
<path d="M281.63 166.533L281 134.373L330.378 141.351V179.187L281.63 166.533Z" fill="#0B52BF" fill-opacity="0.1"/>
<path d="M281.63 166.533L281 134.373L330.378 141.351V179.187L281.63 166.533Z" fill="#0B52BF"/>
<path d="M330.378 141.529V179.187L380.793 163.004V130.017L330.378 141.529Z" fill="#0B52BF" fill-opacity="0.5"/>
<path d="M330.378 141.529V179.187L380.793 163.004V130.017L330.378 141.529Z" fill="#0B52BF" fill-opacity="0.1"/>
<path d="M118.272 198.793V492.743L330.142 547.093L333.002 255.363L118.272 198.793Z" fill="#E0E0E0"/>
<path d="M542.013 491.633L330.143 547.093V255.363L542.013 198.793V491.633Z" fill="#E0E0E0"/>
<path opacity="0.07" d="M542.013 491.633L330.143 547.093V255.363L542.013 198.793V491.633Z" fill="black"/>
<path opacity="0.1" d="M115.502 351.313L234.192 381.263L329.592 303.613V255.913L117.722 202.673L115.502 351.313Z" fill="black"/>
<path opacity="0.1" d="M543.672 351.313L424.982 381.263L329.592 303.613V255.913L541.452 202.673L543.672 351.313Z" fill="black"/>
<path d="M118.272 198.793L9.57227 288.643L221.432 341.883L330.142 255.363L118.272 198.793Z" fill="#E0E0E0"/>
<path d="M542.013 198.793L651.823 288.643L441.063 341.883L330.143 255.363L542.013 198.793Z" fill="#E0E0E0"/>
<path opacity="0.07" d="M542.013 198.793L651.823 288.643L441.063 341.883L330.143 255.363L542.013 198.793Z" fill="black"/>
<rect x="286" width="90" height="90" rx="45" fill="#0B52BF"/>
<path d="M356 48.5714H334.571V70H327.429V48.5714H306V41.4286H327.429V20H334.571V41.4286H356V48.5714Z" fill="white"/>
</svg>
